<svg width="320" height="428" viewBox="0 0 320 428" fill="none" xmlns="http://www.w3.org/2000/svg">
<g clip-path="url(#clip0_57_81)">
<mask id="mask0_57_81" style="mask-type:luminance" maskUnits="userSpaceOnUse" x="-143" y="-85" width="600" height="600">
<path d="M-143 514.722H456.722V-85H-143V514.722Z" fill="white"/>
</mask>
<g mask="url(#mask0_57_81)">
<path d="M263.025 78.1123H233.538V167.771L263.025 78.1123ZM184.278 159.678V124.729C178.717 127.761 172.609 129.902 166.383 130.951C153.975 133.09 140.867 130.834 129.703 124.729V155.919H152.109V168.071H129.703V174.567H148.179V185.459H129.703V202.365V240.722C138.534 241.577 147.362 242.435 156.466 242.435C165.529 242.435 174.902 241.538 184.278 240.643V196.348L177.754 184.653L173.943 188.65V202.365H160.095V155.919H173.943V170.951L184.278 159.678ZM50.8557 78.1859L80.3403 167.885V78.1859H50.8557ZM156.94 291.409C147.839 291.409 138.776 290.553 129.672 289.696V317.977L156.94 400.985L184.247 317.86V289.659C175.145 290.516 166.002 291.409 156.94 291.409Z" fill="#00864B"/>
<path d="M267.722 74.6782L213.846 74.7165C213.846 68.1045 212.679 61.4915 210.424 55.2683C208.129 49.0432 204.744 43.209 200.466 38.1122C196.188 33.0184 191.014 28.6611 185.257 25.3536C173.781 18.665 160.011 16.2531 147.018 18.5864C140.523 19.754 134.183 22.0491 128.426 25.3938C122.708 28.7004 117.535 33.0567 113.255 38.1535C108.975 43.2472 105.593 49.1228 103.338 55.3066C101.041 61.5298 99.9132 68.1428 99.9132 74.7548H45.9995L86.4544 197.791L46.0781 180.209V264.231C51.5627 266.953 57.1643 269.48 62.9582 271.853C68.7955 274.265 74.8242 276.483 81.1259 278.544C87.4659 280.605 94.0779 282.474 99.9132 283.99C105.747 285.508 110.844 286.636 115.978 287.569L156.86 412.004L197.742 287.569C202.605 286.712 207.427 285.663 213.303 284.145C219.137 282.629 226.02 280.684 232.674 278.504C239.326 276.328 245.744 273.916 251.537 271.543C257.334 269.168 262.549 266.798 267.642 264.231V180.209L227.265 197.831L267.722 74.6782ZM80.3411 167.885L50.8555 78.1862H80.3411V167.885ZM98.6498 234.596C95.6164 233.779 92.5426 232.923 89.5081 231.991L89.5464 206.861L98.6498 234.596ZM129.672 289.696C138.775 290.554 147.839 291.409 156.94 291.409C166.002 291.409 175.145 290.515 184.246 289.658V317.86L156.94 400.984L129.672 317.976V289.696ZM184.278 240.644C174.903 241.538 165.53 242.435 156.466 242.435C147.363 242.435 138.534 241.578 129.703 240.722V124.728C140.868 130.835 153.975 133.09 166.383 130.951C172.609 129.902 178.716 127.761 184.278 124.728V240.644ZM224.355 231.982C221.282 232.956 218.209 233.851 215.137 234.707L224.318 206.816L224.355 231.982ZM233.539 78.1127H263.024L233.539 167.771V78.1127Z" fill="#333132"/>
</g>
<path d="M264.232 185.406V213.919L230.004 200.382L264.232 185.406Z" fill="white"/>
<mask id="mask1_57_81" style="mask-type:luminance" maskUnits="userSpaceOnUse" x="-143" y="-85" width="600" height="600">
<path d="M-143 514.722H456.722V-85H-143V514.722Z" fill="white"/>
</mask>
<g mask="url(#mask1_57_81)">
<path d="M227.768 230.903L227.805 203.13L263.399 217.172C257.564 219.74 251.768 222.346 245.815 224.64C239.865 226.936 233.836 228.92 227.768 230.903Z" fill="white"/>
<path d="M120.202 288.285C120.319 288.285 120.437 288.323 120.942 288.403C121.486 288.48 122.42 288.636 123.393 288.791C124.326 288.946 125.299 289.064 126.231 289.219V307.578L119.853 288.209C119.969 288.246 120.085 288.246 120.202 288.285Z" fill="white"/>
<path d="M187.634 307.503V289.221C189.735 288.91 191.835 288.598 193.974 288.208L187.634 307.503Z" fill="white"/>
<path d="M49.5789 261.802V220.025C72.4907 231.227 97.1112 239.047 121.386 242.859C145.657 246.709 169.619 246.592 193.658 242.663C217.696 238.734 241.814 231.033 264.298 220.025V261.802C254.844 266.469 245.044 270.514 234.113 274.287C223.182 278.02 211.084 281.522 198.013 283.973C184.944 286.463 170.863 287.903 157.287 287.941C143.712 287.98 130.566 286.619 118.272 284.401C105.981 282.222 94.5462 279.228 83.186 275.455C71.8298 271.681 60.5099 267.091 49.5789 261.802Z" fill="white"/>
<path d="M255.812 248.831L248.578 251.631C249.239 254.042 248.461 255.872 246.439 256.648C243.327 257.856 240.565 256.222 239.01 252.254C237.414 248.092 238.153 244.707 240.992 243.619C243.209 242.763 245.154 243.503 246.284 245.68L253.363 242.958C250.794 237.511 244.688 235.489 238.581 237.824C231.656 240.507 228.895 247.586 231.811 255.132C234.535 262.096 241.732 265.286 248.656 262.602C254.646 260.268 257.446 254.977 255.812 248.831Z" fill="#333132"/>
</g>
<path d="M216.97 261.665L228.562 258.514L227.122 253.146L215.493 256.298L214.675 253.185L228.095 249.53L226.345 243.035L205.415 248.751L212.147 273.451L233.425 267.656L231.674 261.275L217.904 265.011L216.97 261.665Z" fill="#333132"/>
<mask id="mask2_57_81" style="mask-type:luminance" maskUnits="userSpaceOnUse" x="-143" y="-85" width="600" height="600">
<path d="M-143 514.722H456.722V-85H-143V514.722Z" fill="white"/>
</mask>
<g mask="url(#mask2_57_81)">
<path d="M202.914 249.374L195.328 250.541L197.467 263.961C196.34 262.562 195.134 261.005 194.473 260.109L187.588 251.786L179.963 252.99L183.93 278.275L191.477 277.069L189.376 263.65C190.506 265.245 191.4 266.413 192.256 267.424L199.141 275.864L206.881 274.659L202.914 249.374Z" fill="#333132"/>
<path d="M160.616 266.756C160.461 262.48 162.445 259.562 165.557 259.445C172.441 259.171 173.142 273.256 166.062 273.525C162.951 273.643 160.771 271.036 160.616 266.756ZM152.798 267.029C153.109 275.044 158.4 280.178 166.297 279.865C174.153 279.596 179.095 274.109 178.781 266.096C178.51 258.005 173.18 252.871 165.323 253.144C157.427 253.455 152.525 258.94 152.798 267.029Z" fill="#333132"/>
</g>
<path d="M140.846 253.245L133.184 252.702L131.433 278.256L150.57 279.58L150.999 272.967L139.563 272.188L140.846 253.245Z" fill="#333132"/>
<mask id="mask3_57_81" style="mask-type:luminance" maskUnits="userSpaceOnUse" x="-143" y="-85" width="600" height="600">
<path d="M-143 514.722H456.722V-85H-143V514.722Z" fill="white"/>
</mask>
<g mask="url(#mask3_57_81)">
<path d="M113.714 264.712L118.267 265.528C119.783 265.761 121.534 266.5 121.184 268.409C120.911 270.118 119.939 270.586 117.644 270.157L112.897 269.38L113.714 264.712ZM115.194 256.075L118.966 256.699C120.25 256.932 122.117 257.36 121.805 259.149C121.493 260.937 119.704 260.705 118.305 260.472L114.53 259.849L115.194 256.075ZM108.658 248.763L104.34 274.007L116.866 276.147C118.655 276.458 119.704 276.613 120.872 276.576C127.68 276.576 131.219 267.279 125.151 263.504C129.351 262.222 130.48 256.659 127.407 253.47C126.046 252.109 124.645 251.486 121.105 250.902L108.658 248.763Z" fill="#333132"/>
</g>
<path d="M87.7798 260.336L92.4091 253.761L92.5643 261.696L87.7798 260.336ZM84.5509 264.925L92.7587 267.298L92.9149 271.071L100.46 273.25L98.6323 246.059L91.2022 243.882L75.0212 265.858L82.3717 267.998L84.5509 264.925Z" fill="#333132"/>
<mask id="mask4_57_81" style="mask-type:luminance" maskUnits="userSpaceOnUse" x="-143" y="-85" width="600" height="600">
<path d="M-143 514.722H456.722V-85H-143V514.722Z" fill="white"/>
</mask>
<g mask="url(#mask4_57_81)">
<path d="M82.446 241.089L75.2114 238.211L69.0648 253.771C68.1309 256.027 67.47 256.533 66.0303 255.948C63.5026 254.938 64.8647 252.488 65.6042 250.62L58.9901 247.975C58.835 248.287 58.7564 248.558 58.7181 248.637C56.1894 255.014 57.9404 259.566 63.9298 261.938C66.926 263.146 70.6214 263.184 73.2277 261.161C74.5112 260.073 75.29 259.06 76.3005 256.533L82.446 241.089Z" fill="#333132"/>
</g>
<path d="M83.8721 200.413L49.603 213.95V185.437L83.8721 200.413Z" fill="white"/>
<mask id="mask5_57_81" style="mask-type:luminance" maskUnits="userSpaceOnUse" x="-143" y="-85" width="600" height="600">
<path d="M-143 514.722H456.722V-85H-143V514.722Z" fill="white"/>
</mask>
<g mask="url(#mask5_57_81)">
<path d="M50.4619 217.186L86.0931 203.144V230.917C80.0624 228.933 73.9964 226.949 68.0433 224.654C62.1304 222.36 56.2962 219.753 50.4619 217.186Z" fill="white"/>
<path d="M126.246 240.24C118.35 239.034 110.453 237.516 102.556 235.61L83.7317 178.312V78.189H100.068C100.418 83.4792 101.546 88.6918 103.452 93.8662C105.319 99.0788 108.003 104.174 111.854 109.113C115.666 114.055 120.685 118.761 126.246 122.689V240.24Z" fill="white"/>
<path d="M187.634 122.693C193.002 118.92 197.865 114.408 201.559 109.817C205.293 105.19 207.861 100.482 209.846 95.1925C211.829 89.9023 213.191 84.067 213.774 78.1542L230.15 78.1159V178.201L211.207 235.731C207.59 236.587 203.933 237.404 200.005 238.143C196.075 238.883 191.835 239.504 187.634 240.167V122.693Z" fill="white"/>
<path d="M172.672 119.515L180.707 107.384L195.146 102.968L199.798 106.47C197.77 109.293 195.424 111.877 192.758 114.265C190.094 116.691 187.07 118.918 184.008 120.748C180.985 122.578 177.882 124.01 174.66 125.125L172.672 119.515Z" fill="white"/>
<path d="M172.592 23.736L171 29.0263L157.318 33.7594L143.357 28.8268L141.687 23.6162C146.818 22.4626 151.988 21.3483 157.079 21.3483C162.25 21.3483 167.421 22.5432 172.592 23.736Z" fill="white"/>
</g>
<path d="M120.963 64.3068L134.367 69.1981L141.965 93.065L134.13 104.361L119.812 100.621L112.251 76.2796L120.963 64.3068Z" fill="white"/>
<path d="M193.036 47.283L192.518 61.2445L179.474 65.7781L158.551 50.7829L158.751 36.6632L172.036 32.1679L193.036 47.283Z" fill="white"/>
<mask id="mask6_57_81" style="mask-type:luminance" maskUnits="userSpaceOnUse" x="-143" y="-85" width="600" height="600">
<path d="M-143 514.722H456.722V-85H-143V514.722Z" fill="white"/>
</mask>
<g mask="url(#mask6_57_81)">
<path d="M200.555 44.2597C203.298 48.8739 206.082 53.4881 207.715 58.4197C209.344 63.3512 209.822 68.5629 210.299 73.8138L204.85 73.8541L195.742 61.6819L196.337 47.3224L200.555 44.2597Z" fill="white"/>
</g>
<path d="M180.387 68.9602L193.512 64.1475L202.304 75.8805L194.387 99.7857L180.348 104.083L172.672 93.0649L180.387 68.9602Z" fill="white"/>
<path d="M142.283 32.0093L155.647 36.6628L155.368 50.8228L135.005 66.0578L121.918 61.3226L121.042 47.3229L142.283 32.0093Z" fill="white"/>
<mask id="mask7_57_81" style="mask-type:luminance" maskUnits="userSpaceOnUse" x="-143" y="-85" width="600" height="600">
<path d="M-143 514.722H456.722V-85H-143V514.722Z" fill="white"/>
</mask>
<g mask="url(#mask7_57_81)">
<path d="M117.741 47.3229L118.697 61.8405L109.666 74.2898L103.542 74.0914C104.019 68.7608 104.537 63.4323 106.167 58.4192C107.797 53.4473 110.581 48.7545 113.366 44.101L117.741 47.3229Z" fill="white"/>
</g>
<path d="M170.045 94.9341L177.803 105.911L170.006 117.686H144.55L136.714 106.15L144.59 94.9744L170.045 94.9341Z" fill="white"/>
<mask id="mask8_57_81" style="mask-type:luminance" maskUnits="userSpaceOnUse" x="-143" y="-85" width="600" height="600">
<path d="M-143 514.722H456.722V-85H-143V514.722Z" fill="white"/>
</mask>
<g mask="url(#mask8_57_81)">
<path d="M118.855 103.725L133.851 107.662L141.925 119.595L139.856 125.322C136.635 124.288 133.572 122.857 130.47 121.067C127.407 119.316 124.383 117.128 121.679 114.782C119.015 112.396 116.667 109.89 114.56 107.105L118.855 103.725Z" fill="white"/>
</g>
<path d="M187.634 174.38L205.344 155.923L187.673 155.975L173.943 170.951V155.919H160.095V202.364H173.943V188.65L177.755 184.653L187.634 202.364H205.769L187.634 174.38ZM129.703 168.071H152.11V155.919H129.703H114.772V168.071V174.567V185.459V202.364H129.703V185.459H148.179V174.567H129.703V168.071Z" fill="#333132"/>
</g>
<defs>
<clipPath id="clip0_57_81">
<rect width="320" height="428" fill="white"/>
</clipPath>
</defs>
</svg>
