<svg width="239" height="233" viewBox="0 0 239 233" fill="none" xmlns="http://www.w3.org/2000/svg">
<path d="M113.015 168.278H78.5988L42.1675 112.979V168.278H7.75146V58.3018H42.1675L78.5988 114.532V58.3018H113.015V168.278ZM205.147 58.3018V129.289C205.147 142.441 201.684 152.434 194.76 159.268C187.939 166 178.327 169.365 165.925 169.365C152.593 169.365 141.999 165.689 134.144 158.336C126.29 150.984 122.362 140.266 122.362 126.182H156.313C156.313 130.635 157.037 133.794 158.484 135.658C159.931 137.418 161.894 138.298 164.375 138.298C166.442 138.298 168.044 137.625 169.18 136.279C170.317 134.933 170.886 132.603 170.886 129.289V58.3018H205.147Z" fill="black"/>
<path d="M235.77 0V19.458C235.77 37.3026 221.262 51.7778 203.474 51.7778H171.176V32.3198C171.176 14.4752 185.684 0 203.472 0H235.77Z" fill="#A3D661"/>
</svg>
