<svg xmlns="http://www.w3.org/2000/svg" version="1.1" xmlns:xlink="http://www.w3.org/1999/xlink" width="1000" height="1000"><style>
    #light-icon {
      display: inline;
    }
    #dark-icon {
      display: none;
    }

    @media (prefers-color-scheme: dark) {
      #light-icon {
        display: none;
      }
      #dark-icon {
        display: inline;
      }
    }
  </style><g id="light-icon"><svg xmlns="http://www.w3.org/2000/svg" version="1.1" xmlns:xlink="http://www.w3.org/1999/xlink" width="1000" height="1000"><g clip-path="url(#SvgjsClipPath1107)"><rect width="1000" height="1000" fill="#ffffff"></rect><g transform="matrix(4.184100418410042,0,0,4.184100418410042,0,12.552301255230134)"><svg xmlns="http://www.w3.org/2000/svg" version="1.1" xmlns:xlink="http://www.w3.org/1999/xlink" width="239" height="233"><svg width="239" height="233" viewBox="0 0 239 233" fill="none" xmlns="http://www.w3.org/2000/svg">
<path d="M113.015 168.278H78.5988L42.1675 112.979V168.278H7.75146V58.3018H42.1675L78.5988 114.532V58.3018H113.015V168.278ZM205.147 58.3018V129.289C205.147 142.441 201.684 152.434 194.76 159.268C187.939 166 178.327 169.365 165.925 169.365C152.593 169.365 141.999 165.689 134.144 158.336C126.29 150.984 122.362 140.266 122.362 126.182H156.313C156.313 130.635 157.037 133.794 158.484 135.658C159.931 137.418 161.894 138.298 164.375 138.298C166.442 138.298 168.044 137.625 169.18 136.279C170.317 134.933 170.886 132.603 170.886 129.289V58.3018H205.147Z" fill="black"></path>
<path d="M235.77 0V19.458C235.77 37.3026 221.262 51.7778 203.474 51.7778H171.176V32.3198C171.176 14.4752 185.684 0 203.472 0H235.77Z" fill="#A3D661"></path>
</svg></svg></g></g><defs><clipPath id="SvgjsClipPath1107"><rect width="1000" height="1000" x="0" y="0" rx="0" ry="0"></rect></clipPath></defs></svg></g><g id="dark-icon"><svg xmlns="http://www.w3.org/2000/svg" version="1.1" xmlns:xlink="http://www.w3.org/1999/xlink" width="1000" height="1000"><g><g transform="matrix(27.027027027027028,0,0,27.027027027027028,0,13.513513513513487)"><svg xmlns="http://www.w3.org/2000/svg" version="1.1" xmlns:xlink="http://www.w3.org/1999/xlink" width="37" height="36"><svg width="37" height="36" viewBox="0 0 37 36" fill="none" xmlns="http://www.w3.org/2000/svg">
<path d="M17.496 26H12.168L6.528 17.456V26H1.2V9.008H6.528L12.168 17.696V9.008H17.496V26ZM31.7591 9.008V19.976C31.7591 22.008 31.2231 23.552 30.1511 24.608C29.0951 25.648 27.6071 26.168 25.6871 26.168C23.6231 26.168 21.9831 25.6 20.7671 24.464C19.5511 23.328 18.9431 21.672 18.9431 19.496H24.1991C24.1991 20.184 24.3111 20.672 24.5351 20.96C24.7591 21.232 25.0631 21.368 25.4471 21.368C25.7671 21.368 26.0151 21.264 26.1911 21.056C26.3671 20.848 26.4551 20.488 26.4551 19.976V9.008H31.7591Z" fill="#FBFFFC"></path>
<path d="M36.5 0V3.00639C36.5 5.76349 34.254 8 31.5001 8H26.5V4.99361C26.5 2.23651 28.746 0 31.4999 0H36.5Z" fill="#A3D661"></path>
</svg></svg></g></g></svg></g></svg>