<svg width="37" height="36" viewBox="0 0 37 36" fill="none" xmlns="http://www.w3.org/2000/svg">
<path d="M17.496 26H12.168L6.528 17.456V26H1.2V9.008H6.528L12.168 17.696V9.008H17.496V26ZM31.7591 9.008V19.976C31.7591 22.008 31.2231 23.552 30.1511 24.608C29.0951 25.648 27.6071 26.168 25.6871 26.168C23.6231 26.168 21.9831 25.6 20.7671 24.464C19.5511 23.328 18.9431 21.672 18.9431 19.496H24.1991C24.1991 20.184 24.3111 20.672 24.5351 20.96C24.7591 21.232 25.0631 21.368 25.4471 21.368C25.7671 21.368 26.0151 21.264 26.1911 21.056C26.3671 20.848 26.4551 20.488 26.4551 19.976V9.008H31.7591Z" fill="#FBFFFC"/>
<path d="M36.5 0V3.00639C36.5 5.76349 34.254 8 31.5001 8H26.5V4.99361C26.5 2.23651 28.746 0 31.4999 0H36.5Z" fill="#A3D661"/>
</svg>
